<?xml version="1.0" encoding="UTF-8" standalone="no"?>
<svg
   xmlns:dc="http://purl.org/dc/elements/1.1/"
   xmlns:cc="http://creativecommons.org/ns#"
   xmlns:rdf="http://www.w3.org/1999/02/22-rdf-syntax-ns#"
   xmlns:svg="http://www.w3.org/2000/svg"
   xmlns="http://www.w3.org/2000/svg"
   xmlns:sodipodi="http://sodipodi.sourceforge.net/DTD/sodipodi-0.dtd"
   xmlns:inkscape="http://www.inkscape.org/namespaces/inkscape"
   width="40"
   height="40"
   viewBox="0 0 10.583333 10.583333"
   version="1.1"
   id="svg8"
   inkscape:version="1.0 (6e3e5246a0, 2020-05-07)"
   sodipodi:docname="stryker-40x40.svg">
  <defs
     id="defs2">
    <filter
       inkscape:collect="always"
       style="color-interpolation-filters:sRGB"
       id="filter1724"
       x="-0.013535699"
       width="1.0270714"
       y="-0.010777261"
       height="1.0215545">
      <feGaussianBlur
         inkscape:collect="always"
         stdDeviation="0.2825215"
         id="feGaussianBlur1726" />
    </filter>
  </defs>
  <sodipodi:namedview
     units="px"
     id="base"
     pagecolor="#ffffff"
     bordercolor="#666666"
     borderopacity="1.0"
     inkscape:pageopacity="0.0"
     inkscape:pageshadow="2"
     inkscape:zoom="15.839192"
     inkscape:cx="8.9514457"
     inkscape:cy="25.753403"
     inkscape:document-units="mm"
     inkscape:current-layer="layer3"
     inkscape:document-rotation="0"
     showgrid="false"
     showguides="false"
     inkscape:window-width="3382"
     inkscape:window-height="1376"
     inkscape:window-x="58"
     inkscape:window-y="27"
     inkscape:window-maximized="1" />
  <metadata
     id="metadata5">
    <rdf:RDF>
      <cc:Work
         rdf:about="">
        <dc:format>image/svg+xml</dc:format>
        <dc:type
           rdf:resource="http://purl.org/dc/dcmitype/StillImage" />
        <dc:title></dc:title>
      </cc:Work>
    </rdf:RDF>
  </metadata>
  <g
     inkscape:groupmode="layer"
     id="layer2"
     inkscape:label="Background"
     style="display:inline">
    <path
       id="path879-1"
       d="M 4.620031,9.9738854 C 3.7172552,9.8239679 2.9722203,9.5006184 2.3119002,8.972145 2.1433595,8.8372567 1.8574685,8.562337 1.7051085,8.3886386 1.293125,7.9189567 0.97425399,7.3678537 0.77834743,6.7869227 0.63412405,6.3592509 0.55738884,5.9416651 0.5343661,5.459206 0.50004181,4.7399442 0.63581443,4.0301686 0.93716772,3.3534655 1.211341,2.7377983 1.5867968,2.2127647 2.0596885,1.7837444 3.0261642,0.90693014 4.2225125,0.47138082 5.4888052,0.53532076 5.9181963,0.55700186 6.2208132,0.60729613 6.6107807,0.72178863 7.6603275,1.0299322 8.5675803,1.6970862 9.1907017,2.6189507 9.5039795,3.0824194 9.7132479,3.5496709 9.8521401,4.0957727 9.9685272,4.5533845 9.9921839,4.7486705 9.9929506,5.2580123 9.9935418,5.6716698 9.9867344,5.7772745 9.9423533,6.0326381 9.8071214,6.8120552 9.5139016,7.4973199 9.0516584,8.1142184 8.9059875,8.3086263 8.7170365,8.5133648 8.441218,8.7756448 7.9057988,9.2847877 7.1895866,9.6729957 6.431551,9.8649405 5.9865684,9.9776218 5.8798451,9.9897511 5.2778213,9.9960905 4.7950069,10.00114 4.7816057,10.00068 4.6200237,9.9738605 Z"
       style="fill:#e74c3c;fill-opacity:1;stroke-width:0.0112011" />
  </g>
  <g
     inkscape:groupmode="layer"
     id="layer3"
     inkscape:label="Markers"
     style="display:inline">
    <rect
       style="fill:#000000;fill-opacity:1;stroke-width:0.040412"
       id="rect881"
       width="0.14195722"
       height="0.71020812"
       x="5.2137551"
       y="0.61202431" />
    <rect
       y="9.2292147"
       x="5.2137551"
       height="0.73388177"
       width="0.14195722"
       id="rect881-6"
       style="display:inline;fill:#000000;fill-opacity:1;stroke-width:0.0410796" />
    <rect
       style="display:inline;fill:#000000;fill-opacity:1;stroke-width:0.0371968"
       id="rect881-6-5"
       width="0.72161579"
       height="0.11836803"
       x="0.58736914"
       y="5.2044668" />
    <rect
       y="5.2044668"
       x="9.2131624"
       height="0.11836803"
       width="0.72161579"
       id="rect881-6-5-6"
       style="display:inline;fill:#000000;fill-opacity:1;stroke-width:0.0371968" />
  </g>
  <g
     inkscape:groupmode="layer"
     id="layer6"
     inkscape:label="Shadow"
     style="display:inline">
    <path
       d="M 51.504809,16.875 30.716415,17.796391 29.748,36.034038 l 18.591628,18.260898 0.637688,6.425449 -18.09347,7.082255 12.004437,11.987382 c 2.744401,-0.09048 3.963074,-0.317421 6.870379,-1.053166 6.407867,-1.621597 12.462076,-4.901184 16.988116,-9.202539 2.33155,-2.215814 3.92852,-3.945356 5.15989,-5.587772 3.90744,-5.211705 6.38607,-11.001315 7.52925,-17.586008 0.25974,-1.496227 0.36581,-2.399914 0.40566,-3.969265 L 58.997375,21.715532 Z"
       style="display:inline;opacity:0.3;fill:#000000;fill-opacity:1;stroke:#000003;stroke-width:0.0946571;stroke-opacity:1;filter:url(#filter1724)"
       id="path879-1-0"
       transform="matrix(0.11829766,0,0,0.11836873,0.52916666,0.52916666)" />
  </g>
  <g
     inkscape:groupmode="layer"
     id="layer4"
     inkscape:label="Text"
     style="display:inline">
    <path
       style="opacity:1;mix-blend-mode:normal;fill:#f1c40f;fill-opacity:1;stroke-width:0.00799027"
       d="m 5.1016271,8.8464537 c -0.081597,-0.00242 -0.1455961,-0.008 -0.1590262,-0.013864 -0.01236,-0.00538 -0.083783,-0.015146 -0.158713,-0.021621 -0.093768,-0.00818 -0.1422711,-0.015757 -0.1555925,-0.02443 -0.010645,-0.00691 -0.054559,-0.017834 -0.097585,-0.024186 -0.048328,-0.0072 -0.081582,-0.016124 -0.087002,-0.023453 -0.00483,-0.00648 -0.034258,-0.016612 -0.065398,-0.022415 -0.031144,-0.00585 -0.065483,-0.016368 -0.076308,-0.02327 -0.010826,-0.00697 -0.037755,-0.01704 -0.059842,-0.022353 -0.022092,-0.00535 -0.048768,-0.016307 -0.059286,-0.024369 -0.010512,-0.00806 -0.034011,-0.018505 -0.052211,-0.023331 -0.018198,-0.00478 -0.040316,-0.015085 -0.049155,-0.022903 -0.00884,-0.00781 -0.030522,-0.018689 -0.048195,-0.024308 -0.017673,-0.00553 -0.034856,-0.014597 -0.03819,-0.020216 -0.00333,-0.00558 -0.02231,-0.016307 -0.042174,-0.023819 -0.019864,-0.00751 -0.036112,-0.016979 -0.036112,-0.020949 0,-0.00403 -0.017165,-0.014841 -0.038154,-0.024002 -0.020988,-0.00916 -0.042876,-0.02327 -0.048649,-0.031392 -0.00577,-0.00806 -0.015179,-0.014719 -0.020897,-0.014719 -0.00573,0 -0.021271,-0.00984 -0.034554,-0.021865 -0.043782,-0.039576 -0.1007628,-0.081473 -0.1109379,-0.081473 -0.0055,0 -0.011888,-0.00709 -0.014177,-0.015819 -0.00229,-0.00867 -0.013253,-0.019177 -0.024345,-0.023391 -0.011091,-0.00418 -0.022527,-0.014963 -0.025414,-0.023941 -0.00288,-0.00898 -0.013168,-0.018261 -0.022847,-0.020705 -0.00969,-0.00241 -0.023734,-0.014964 -0.031222,-0.02785 -0.00749,-0.012887 -0.018802,-0.023453 -0.02516,-0.023453 -0.00636,0 -0.013664,-0.00831 -0.016248,-0.018505 -0.00258,-0.010199 -0.013815,-0.022659 -0.024966,-0.027665 -0.011147,-0.00502 -0.020269,-0.013559 -0.020269,-0.018933 0,-0.00539 -0.00919,-0.018872 -0.020439,-0.029987 -0.030298,-0.029926 -0.083983,-0.095708 -0.083983,-0.1029521 0,-0.00347 -0.00903,-0.01594 -0.020081,-0.027728 -0.011044,-0.011788 -0.020082,-0.025467 -0.020082,-0.030476 0,-0.00496 -0.00698,-0.01643 -0.015511,-0.025406 C 3.2795784,7.900456 3.186959,7.7255541 3.1532987,7.6459266 3.0938674,7.5053425 3.0010765,7.2316656 3.0137043,7.2241023 c 0.00358,-0.00214 0.02711,-0.0072 0.053261,-0.016063 0.028124,-0.00947 0.052006,-0.018567 0.063154,-0.023391 0.0099,-0.00424 0.030335,-0.013498 0.0489,-0.019483 0.043311,-0.013864 0.074477,-0.024736 0.088805,-0.031452 0.00346,-0.0016 0.021663,-0.00959 0.04764,-0.018445 0.026042,-0.00898 0.053635,-0.018078 0.063466,-0.021804 0.010784,-0.00404 0.03703,-0.01307 0.064921,-0.024492 0.026494,-0.01081 0.054825,-0.019605 0.06426,-0.023881 0.00914,-0.00408 0.037483,-0.013375 0.06343,-0.023697 0.026168,-0.010383 0.056552,-0.021254 0.070152,-0.027301 0.012903,-0.00575 0.025595,-0.012093 0.033257,-0.015819 0.021193,-0.00794 0.062215,-0.019971 0.083438,-0.027116 0.0079,-0.00265 0.026826,-0.01197 0.046462,-0.018994 0.018977,-0.00684 0.068909,-0.017162 0.1095062,-0.02785 0.080602,-0.021254 0.099122,-0.033101 0.1085095,-0.00574 0.00393,0.011482 0.014454,0.043118 0.017551,0.056555 0,0 0.016979,0.038721 0.027346,0.069105 0.010373,0.030477 0.024157,0.053073 0.024157,0.053073 0.00301,0.00504 0.027514,0.0535 0.044471,0.080923 0.041897,0.067756 0.1166854,0.1850233 0.1702701,0.2586662 0.058657,0.080615 0.1904502,0.1829866 0.2727181,0.236817 C 4.8256467,7.8148444 5.0419971,7.825905 5.4319866,7.8106731 5.8056801,7.7960828 5.8354852,7.7795318 6.0342942,7.582819 6.1542786,7.4640792 6.1647363,7.4791339 6.2100745,7.3122679 6.2287739,7.2434315 6.2702731,7.1114143 6.2702482,6.9783953 6.2702162,6.7719474 6.2865627,6.8099903 6.2527322,6.6129195 6.237372,6.5234189 6.2303977,6.4992666 6.2057998,6.4098417 6.1753085,6.2989761 6.1613609,6.2707276 6.123456,6.1770361 6.114906,6.1559041 6.110015,6.1501761 6.095682,6.1316211 6.088792,6.1270211 6.07749,6.1194911 6.069218,6.1141901 6.061378,6.1091701 6.047464,6.0996731 6.040894,6.0871161 6.034334,6.0745591 6.023554,6.0642801 6.016947,6.0642801 c -0.00661,0 -0.016006,-0.00867 -0.020885,-0.019257 C 5.991192,6.0344331 5.978854,6.0236891 5.968657,6.0211551 5.958459,6.0186251 5.947923,6.0097041 5.945242,6.0013361 5.942562,5.9929861 5.929948,5.9825251 5.91722,5.9781341 5.904491,5.9737441 5.890503,5.9635431 5.886144,5.9554811 5.881774,5.9474111 5.865127,5.9361261 5.849138,5.9304031 5.833144,5.9246831 5.811298,5.9113291 5.800586,5.9007271 5.789875,5.8901311 5.77609,5.8814581 5.769949,5.8814581 c -0.00613,0 -0.021543,-0.00884 -0.03424,-0.019623 C 5.723024,5.8510501 5.701674,5.8398541 5.688275,5.8369601 5.674871,5.8340701 5.654059,5.8235301 5.642018,5.8135381 5.629972,5.8035481 5.608803,5.7929071 5.59497,5.7899011 5.581137,5.7869011 5.557673,5.7762821 5.542839,5.7663201 5.527998,5.7563501 5.502343,5.7456951 5.485829,5.7426291 5.46931,5.7395591 5.446034,5.7289241 5.43409,5.7189801 5.422153,5.7090401 5.396927,5.6984651 5.378027,5.6954721 5.359134,5.6924821 5.339149,5.6836541 5.333625,5.6758431 5.328095,5.6680431 5.303466,5.6572031 5.27888,5.6517551 5.254294,5.6463051 5.234182,5.6385811 5.234182,5.6345871 c 0,-0.00907 -0.042772,-0.027087 -0.08123,-0.034215 C 5.136994,5.5974121 5.1176,5.5880651 5.109859,5.5796061 5.102109,5.5711461 5.079453,5.5617901 5.059491,5.5588281 5.039529,5.5558681 5.016602,5.5469191 5.008549,5.5389421 5.000489,5.5309721 4.973294,5.5191171 4.948111,5.5126131 4.922926,5.5061031 4.900188,5.4975521 4.897573,5.4936001 4.889913,5.4820261 4.863037,5.4706481 4.828915,5.4645471 4.811447,5.4614171 4.787302,5.4506581 4.775268,5.4406421 4.763234,5.4306201 4.737187,5.4200231 4.717382,5.4170851 4.697578,5.4141451 4.679439,5.4067451 4.677072,5.4006321 4.674702,5.3945221 4.6553,5.3843921 4.633954,5.3781141 4.612604,5.3718441 4.581189,5.3573421 4.564137,5.3458911 c -0.01705,-0.011451 -0.038111,-0.02082 -0.046793,-0.02082 -0.00869,0 -0.02653,-0.00895 -0.039663,-0.019868 C 4.464548,5.2942711 4.444153,5.2830811 4.432342,5.2803341 4.420533,5.2775841 4.401839,5.2672891 4.390794,5.2574491 4.37975,5.2476091 4.357157,5.2352721 4.340588,5.2300331 4.324021,5.2247931 4.310464,5.2170851 4.310464,5.2128961 c 0,-0.0042 -0.015415,-0.014151 -0.034246,-0.02214 C 4.257386,5.1827661 4.237376,5.1707601 4.231772,5.1640731 4.226162,5.1573931 4.20995,5.1472411 4.195738,5.1415251 4.181525,5.1358151 4.165525,5.1251871 4.160181,5.1179191 4.154841,5.1106591 4.139472,5.1002011 4.126049,5.0946921 4.11262,5.0891921 4.101632,5.0816891 4.101632,5.0780371 c 0,-0.00366 -0.016266,-0.016081 -0.036148,-0.027606 -0.019882,-0.011525 -0.036148,-0.024381 -0.036148,-0.028558 0,-0.00419 -0.01239,-0.012716 -0.027526,-0.018982 -0.015143,-0.00625 -0.029731,-0.018243 -0.032418,-0.026628 -0.00269,-0.00837 -0.013555,-0.017394 -0.024146,-0.020026 -0.01059,-0.00263 -0.021549,-0.011928 -0.024351,-0.020662 -0.0028,-0.00873 -0.00864,-0.01588 -0.012951,-0.01588 -0.010554,0 -0.1758063,-0.1635741 -0.1758063,-0.1740239 0,-0.00452 -0.0074,-0.012154 -0.016453,-0.016942 -0.00904,-0.00479 -0.019931,-0.017779 -0.024194,-0.028869 -0.00426,-0.011091 -0.014623,-0.021939 -0.023034,-0.024112 -0.00842,-0.00217 -0.017269,-0.011775 -0.019689,-0.021322 -0.00243,-0.00956 -0.015378,-0.029529 -0.028794,-0.044394 -0.013416,-0.014866 -0.024387,-0.031923 -0.024387,-0.037902 0,-0.00597 -0.00844,-0.01875 -0.01876,-0.028375 -0.010319,-0.00964 -0.023041,-0.029871 -0.028275,-0.044981 -0.00524,-0.015116 -0.016224,-0.034781 -0.024423,-0.043717 -0.00821,-0.00894 -0.019267,-0.029688 -0.024579,-0.046117 -0.00532,-0.016436 -0.015148,-0.035307 -0.021851,-0.041933 -0.0067,-0.00664 -0.017021,-0.030207 -0.022932,-0.052395 -0.00591,-0.022183 -0.016133,-0.046233 -0.022703,-0.053446 -0.00657,-0.00721 -0.017769,-0.037999 -0.024883,-0.068423 -0.00711,-0.030427 -0.017914,-0.060824 -0.023988,-0.067562 -0.00606,-0.00674 -0.016561,-0.049268 -0.023295,-0.094513 -0.00674,-0.045229 -0.017523,-0.088153 -0.023953,-0.095368 C 3.3204981,3.91799 3.3021126,3.6235199 3.3091228,3.505896 3.3319942,3.1222281 3.4780457,2.7285808 3.7105651,2.4239059 3.777234,2.3365495 3.9683598,2.1430443 4.0213135,2.1092906 c 0.019883,-0.012673 0.038861,-0.027227 0.042169,-0.032345 0.00331,-0.00511 0.022291,-0.017094 0.042175,-0.026623 0.019882,-0.00953 0.036148,-0.02043 0.036148,-0.024234 0,-0.00382 0.014672,-0.011269 0.032598,-0.016588 0.017932,-0.00531 0.035889,-0.015739 0.039898,-0.023159 0.004,-0.00742 0.023016,-0.017406 0.042229,-0.022195 0.019219,-0.00479 0.041511,-0.015903 0.049565,-0.024705 0.00805,-0.0088 0.027684,-0.01823 0.043648,-0.020967 0.015958,-0.00273 0.041667,-0.01293 0.057138,-0.022659 0.015462,-0.00973 0.046183,-0.02214 0.068276,-0.027576 0.022092,-0.00544 0.051009,-0.01635 0.06426,-0.024252 0.013254,-0.00789 0.047181,-0.018267 0.075391,-0.023038 0.028215,-0.00477 0.059848,-0.014224 0.070307,-0.021004 0.010458,-0.00679 0.058779,-0.017522 0.10737,-0.023862 0.048593,-0.00635 0.09862,-0.016789 0.1111624,-0.023202 0.076266,-0.039032 0.9305009,-0.038916 1.0068065,1.303e-4 0.012438,0.00637 0.064011,0.016655 0.1146096,0.022866 0.050598,0.00621 0.100432,0.016765 0.1107417,0.023446 0.010313,0.0067 0.046728,0.017455 0.08092,0.023929 0.034193,0.00648 0.067357,0.016899 0.073692,0.023172 0.00633,0.00627 0.03037,0.015874 0.053412,0.021346 0.084046,0.019953 0.3483811,0.1687953 0.4567166,0.2571704 0.088486,0.072183 0.2490041,0.2213403 0.2490041,0.231379 0,0.00306 0.00997,0.015641 0.022039,0.027966 0.038642,0.039203 0.052228,0.054624 0.065451,0.074109 0.00706,0.01045 0.03683,0.054355 0.066127,0.097568 0.093883,0.1384911 0.1766576,0.3187909 0.2274244,0.4953749 0.042326,0.1472029 0.042508,0.1329647 -0.00163,0.1392278 -0.020891,0.00298 -0.051383,0.012148 -0.067741,0.020399 -0.016302,0.00824 -0.048848,0.020215 -0.072292,0.026597 -0.023488,0.0064 -0.1943063,0.093869 -0.4010149,0.1559631 -0.3627363,0.1089595 -0.3938611,0.080948 -0.4090466,0.067349 -0.00866,-0.00774 -0.015753,-0.019794 -0.015776,-0.02677 -9.51e-5,-0.024736 -0.016344,-0.07023 -0.031119,-0.087091 -0.00824,-0.00941 -0.017305,-0.031434 -0.020137,-0.048956 -0.00284,-0.017523 -0.012723,-0.03935 -0.021989,-0.048517 -0.00926,-0.00917 -0.020226,-0.028783 -0.024356,-0.043594 -0.00412,-0.014804 -0.016381,-0.036393 -0.027218,-0.047968 -0.010838,-0.011574 -0.019707,-0.027428 -0.019707,-0.035239 0,-0.00781 -0.010778,-0.021792 -0.023952,-0.031074 -0.013174,-0.00928 -0.023591,-0.01936 -0.023143,-0.022402 0.00261,-0.017895 -0.011684,-0.037585 -0.076091,-0.1048797 -0.010458,-0.010932 -0.021247,-0.026134 -0.02397,-0.033779 -0.00273,-0.00764 -0.010246,-0.013912 -0.016707,-0.013912 -0.00647,0 -0.019478,-0.010731 -0.028915,-0.02385 -0.00943,-0.013119 -0.021531,-0.02385 -0.026874,-0.02385 -0.00534,0 -0.019255,-0.010761 -0.030913,-0.023916 -0.011666,-0.013155 -0.032236,-0.026097 -0.045732,-0.028767 -0.013839,-0.00274 -0.026579,-0.011256 -0.029242,-0.019563 -0.00412,-0.012875 -0.046457,-0.030921 -0.072831,-0.03105 -0.00484,-2.39e-5 -0.015046,-0.00688 -0.022677,-0.015226 -0.00868,-0.00949 -0.034029,-0.018597 -0.067514,-0.024277 -0.029494,-0.005 -0.068125,-0.015959 -0.085842,-0.024351 -0.075808,-0.035899 -0.5925215,-0.03527 -0.6678384,8.051e-4 -0.018585,0.00891 -0.058441,0.019868 -0.08857,0.024369 -0.033667,0.00502 -0.065783,0.01558 -0.083326,0.027378 -0.015699,0.01056 -0.034911,0.019202 -0.042701,0.019202 -0.018192,0 -0.045344,0.014029 -0.063612,0.032869 -0.00791,0.00815 -0.022709,0.014816 -0.032895,0.014816 -0.010192,0 -0.025408,0.00753 -0.033824,0.016747 -0.00842,0.00921 -0.028414,0.023361 -0.044433,0.031453 -0.016024,0.00809 -0.031294,0.020289 -0.033933,0.027092 -0.00263,0.00681 -0.013929,0.015812 -0.025088,0.020014 -0.011159,0.00421 -0.020281,0.012844 -0.020281,0.019208 0,0.00638 -0.010844,0.019214 -0.024097,0.028558 -0.013253,0.00934 -0.024097,0.021877 -0.024097,0.027869 0,0.00599 -0.010844,0.022634 -0.024097,0.036998 -0.013253,0.014359 -0.024098,0.030202 -0.024098,0.035208 0,0.005 -0.014304,0.033719 -0.031789,0.063802 -0.040582,0.069828 -0.076512,0.1768216 -0.093229,0.2776008 -0.017329,0.1044857 -0.011906,0.2671615 0.011918,0.3573394 0.021187,0.08019 0.075533,0.1920096 0.1243922,0.2559411 0.1073423,0.1404534 0.3120643,0.2767519 0.5335336,0.3552129 0.032369,0.01147 0.064119,0.026055 0.070542,0.032413 0.00643,0.00636 0.025117,0.013998 0.041542,0.016985 0.016429,0.00299 0.039674,0.013522 0.051673,0.02341 0.011998,0.00989 0.036071,0.020369 0.053502,0.02327 0.017425,0.00291 0.037917,0.012105 0.045527,0.020424 0.00772,0.00843 0.034513,0.019147 0.060596,0.024228 0.025722,0.005 0.052832,0.015739 0.060247,0.02385 0.00743,0.00812 0.034984,0.018933 0.061315,0.024051 0.026307,0.00512 0.049644,0.013974 0.051854,0.019678 0.00431,0.011115 0.036112,0.022579 0.085379,0.030781 0.01681,0.0028 0.037278,0.01172 0.045466,0.019825 0.00819,0.00811 0.03479,0.018829 0.059099,0.023826 0.024309,0.00499 0.045985,0.013693 0.048177,0.01933 0.00217,0.00564 0.026898,0.016563 0.054915,0.024283 0.028016,0.00772 0.057083,0.020454 0.064587,0.028302 0.00751,0.00785 0.029192,0.016857 0.048195,0.02002 0.019001,0.00317 0.044765,0.014236 0.057264,0.024619 0.012486,0.010383 0.037018,0.021132 0.054511,0.023905 0.017824,0.00281 0.035061,0.01106 0.039217,0.018744 0.00407,0.00753 0.024731,0.018445 0.045895,0.024234 0.021163,0.00579 0.042882,0.016576 0.04826,0.023965 0.00538,0.00739 0.026892,0.017693 0.047803,0.022909 0.020914,0.00521 0.04282,0.016252 0.048684,0.024539 0.00585,0.00827 0.023481,0.017443 0.039155,0.020356 0.015668,0.0029 0.036347,0.013369 0.045955,0.023245 0.0096,0.00987 0.031041,0.022231 0.047645,0.027458 0.016605,0.00523 0.03374,0.016087 0.038087,0.024119 0.00435,0.00804 0.018802,0.016979 0.032133,0.01988 0.013332,0.00289 0.027708,0.011702 0.031964,0.019562 0.00424,0.00786 0.022117,0.01999 0.039692,0.026946 0.01757,0.00697 0.035865,0.019911 0.040695,0.028779 0.0048,0.00888 0.013886,0.016118 0.020167,0.016118 0.00628,0 0.022401,0.00984 0.035804,0.021853 0.024212,0.021749 0.040212,0.034946 0.1167855,0.096661 0.022039,0.017791 0.051806,0.043112 0.066038,0.056268 0.014249,0.013162 0.029586,0.023923 0.034114,0.023923 0.00456,0 0.00827,0.00512 0.00827,0.011384 0,0.00625 0.010868,0.019019 0.024152,0.028356 0.013283,0.00934 0.024151,0.020551 0.024151,0.024918 0,0.00437 0.011774,0.019471 0.026143,0.033554 0.034778,0.034123 0.072944,0.082345 0.080069,0.1011602 0.00317,0.00837 0.01105,0.015232 0.017449,0.015232 0.0064,0 0.015819,0.012349 0.020831,0.027441 0.00504,0.015091 0.015456,0.029412 0.023125,0.031825 0.00773,0.00242 0.018839,0.017785 0.024755,0.034158 0.00593,0.016374 0.019321,0.037646 0.029706,0.047277 0.010446,0.00964 0.018899,0.024204 0.018899,0.032399 0,0.00819 0.00888,0.023123 0.019623,0.033175 0.010808,0.010053 0.022098,0.029456 0.025179,0.043118 0.00301,0.013656 0.013585,0.034415 0.023547,0.046129 0.00997,0.011708 0.020589,0.034794 0.023728,0.051308 0.00313,0.016508 0.014008,0.039758 0.024152,0.051669 0.010143,0.011903 0.02083,0.037743 0.023849,0.057422 0.00298,0.019678 0.012316,0.044443 0.020709,0.05504 0.00846,0.010596 0.019261,0.04393 0.024151,0.074082 0.00485,0.030153 0.015518,0.066057 0.023668,0.079797 0.00967,0.016258 0.018234,0.056487 0.024635,0.1152525 0.00591,0.054564 0.016543,0.1059937 0.026869,0.1300147 0.016423,0.038342 0.017026,0.051204 0.017026,0.3656284 -3.14e-5,0.3180421 -4.493e-4,0.3266598 -0.017268,0.3578868 -0.010989,0.020338 -0.02065,0.060646 -0.026748,0.1105376 -0.00628,0.05228 -0.014551,0.085437 -0.024573,0.099147 -0.00833,0.011299 -0.018597,0.042813 -0.022944,0.069936 -0.0043,0.027116 -0.015154,0.059364 -0.024151,0.071536 -0.00899,0.012215 -0.020046,0.039453 -0.024755,0.060463 -0.00466,0.02101 -0.015276,0.0455 -0.023668,0.054295 -0.00839,0.00886 -0.017449,0.028217 -0.020227,0.042996 -0.00281,0.01478 -0.013525,0.036827 -0.023849,0.048981 -0.010325,0.012154 -0.021133,0.033224 -0.024212,0.046904 -0.00301,0.013681 -0.014129,0.032857 -0.024755,0.042752 -0.010627,0.0099 -0.021495,0.028216 -0.024333,0.040797 -0.0028,0.012581 -0.011592,0.026323 -0.019563,0.030597 -0.00797,0.00422 -0.016786,0.016674 -0.019502,0.027606 -0.00278,0.010932 -0.015337,0.031636 -0.027956,0.045927 -0.01262,0.014291 -0.02548,0.034018 -0.02856,0.043851 -0.00311,0.00984 -0.010506,0.017834 -0.016363,0.017834 -0.00589,0 -0.018175,0.01252 -0.027291,0.027789 -0.00911,0.015329 -0.020046,0.027789 -0.024393,0.027789 -0.00428,0 -0.00985,0.00635 -0.012317,0.01417 -0.007,0.021865 -0.2459007,0.256095 -0.2612007,0.256095 -0.00445,0 -0.014008,0.00898 -0.021253,0.019971 -0.00724,0.010933 -0.021857,0.022109 -0.032544,0.024796 -0.010627,0.00263 -0.023065,0.011605 -0.027532,0.019971 -0.00454,0.00837 -0.022581,0.020888 -0.040212,0.027849 -0.01757,0.00697 -0.035442,0.019055 -0.039668,0.026933 -0.00424,0.00788 -0.018439,0.016674 -0.031536,0.019422 -0.01309,0.00284 -0.025873,0.011605 -0.028414,0.019544 -0.00277,0.00867 -0.019044,0.018322 -0.040852,0.02443 -0.019932,0.00552 -0.039561,0.016184 -0.043624,0.023697 -0.00405,0.00751 -0.023952,0.018201 -0.044198,0.023881 -0.020245,0.00561 -0.041179,0.016307 -0.046516,0.023758 -0.00534,0.00745 -0.028753,0.018017 -0.052034,0.023575 -0.024477,0.00578 -0.045563,0.016002 -0.049982,0.024125 -0.00471,0.00867 -0.02144,0.016185 -0.043503,0.019422 -0.01972,0.00293 -0.04817,0.013559 -0.063216,0.023697 -0.015046,0.010139 -0.043727,0.020766 -0.063728,0.023758 -0.020003,0.00297 -0.0504,0.012643 -0.067535,0.02156 -0.017135,0.00892 -0.06147,0.021132 -0.098516,0.027239 -0.037041,0.00611 -0.076054,0.016795 -0.086687,0.023697 -0.012934,0.00837 -0.060114,0.016246 -0.1424734,0.023758 -0.067728,0.00611 -0.1371569,0.01649 -0.1542864,0.022964 -0.03636,0.013742 -0.2126569,0.018995 -0.4247319,0.012643 z"
       id="path1037"
       sodipodi:nodetypes="csssssssssssssssssscssssssssssssssssssssssssssscssssssssssssscssscsssscssssssscssssssssssssssssssssssssssssssssssscsssssssscsscsssssssssssssssssssccssssssssssssssscsssssssscssssssscscsssssssssssssssscscsssssssssssscsssssssssssssssssssssssssssssssssssssssssscssssssssssssscssssssssssscsssssssssssssssssssssssssssssscc" />
  </g>
</svg>
